<svg xmlns="http://www.w3.org/2000/svg" xmlns:xlink="http://www.w3.org/1999/xlink" enable-background="new 0 0 48 48" height="48px" id="Layer_1" version="1.1" viewBox="0 0 53 53" width="48px" xml:space="preserve"><defs><style>.cls-1{fill:#231f20;}.cls-2{fill:#dd2f2f;}</style></defs><g id="圖層_2" data-name="圖層 2"><g id="Layer_1" data-name="Layer 1"><path class="cls-1" d="M24,4.63a24,24,0,1,0,24,24A24,24,0,0,0,24,4.63Zm0,43.84a20,20,0,1,1,20-20A20,20,0,0,1,24,48.47Z"/><circle class="cls-1" cx="16.3" cy="36.76" r="2.39"/><circle class="cls-1" cx="28.65" cy="36.76" r="2.39"/><path class="cls-1" d="M35,18.11H32.82a1.58,1.58,0,0,0-1.73,1.25l-.05.43h0l-.52,2.26c-.11.34-.45.88-1.51.88H11.27L14.4,33h17l1.51-8.34.43-2h0l0-.14a1.89,1.89,0,0,1,2-1.39h.19a1.16,1.16,0,0,0,1.2-1.31v-.19C36.73,18.07,35,18.11,35,18.11Z"/><path class="cls-2" d="M44,0a8.56,8.56,0,1,0,8.55,8.55A8.55,8.55,0,0,0,44,0Zm4.27,9.41H44.84v3.42H43.13V9.41H39.71V7.7h3.42V4.28h1.71V7.7h3.42Z"/></g></g></svg>