<svg xmlns="http://www.w3.org/2000/svg" xmlns:xlink="http://www.w3.org/1999/xlink" enable-background="new 0 0 48 48" height="48px" id="Layer_1" version="1.1" viewBox="0 0 53 53" width="48px" xml:space="preserve"><defs><style>.cls-1{fill:#231f20;}.cls-2{fill:#dd2f2f;}</style></defs><g id="圖層_2" data-name="圖層 2"><g id="Layer_1" data-name="Layer 1"><path class="cls-1" d="M24,4.63a24,24,0,1,0,24,24,24,24,0,0,0-24-24ZM16.3,39.14a2.39,2.39,0,1,1,2.39-2.39h0a2.39,2.39,0,0,1-2.38,2.38Zm12.35,0A2.39,2.39,0,1,1,31,36.71v0A2.39,2.39,0,0,1,28.65,39.14Zm8.08-19.39a1.17,1.17,0,0,1-1,1.31h-.38a1.88,1.88,0,0,0-2,1.38v.14h0l-.43,2L31.35,33h-17L11.22,23H29c1.06,0,1.4-.54,1.51-.88L31,19.79h0l.05-.43a1.59,1.59,0,0,1,1.73-1.25H35s1.75-.05,1.75,1.45Z"/><path class="cls-2" d="M44,0a8.56,8.56,0,1,0,8.55,8.57v0A8.55,8.55,0,0,0,44,0Zm4.27,9.41H44.84v3.42H43.13V9.41H39.71V7.7h3.42V4.28h1.71V7.7h3.42Z"/></g></g></svg>